{"title":"Deadliest Catch -  Season 1 - 5 Disc Set - DVD-R [RLG]","uid":13529885,"size":19153717568,"categoryP":"video","categoryS":"tv_shows","magnet":"?xt=urn:btih:7779066c7ccf556d4c6dc9c8e07269f78417a7eb&amp;dn=Deadliest+Catch+-++Season+1+-+5+Disc+Set+-+DVD-R+%5BRLG%5D&amp;tr=udp%3A%2F%2Ftracker.leechers-paradise.org%3A6969&amp;tr=udp%3A%2F%2Fzer0day.ch%3A1337&amp;tr=udp%3A%2F%2Fopen.demonii.com%3A1337&amp;tr=udp%3A%2F%2Ftracker.coppersurfer.tk%3A6969&amp;tr=udp%3A%2F%2Fexodus.desync.com%3A6969","seeders":1,"leechers":4,"uploader":"RedLegsGreaves","files":105,"time":1455410279,"description":"[IMG]http://lookpic.com/O/i2/250/VwnJsOIZ.jpeg[/IMG]\r\n\r\n\r\n[b]INFO[/b]\r\n \nhttp://www.imdb.com/title/tt0446809/\r\n\r\nVideo\r\nID                          : 224 (0xE0)\r\nFormat                      : MPEG Video\r\nFormat version              : Version 2\r\nFormat profile              :   \r\nFormat settings, BVOP       : Yes\r\nFormat settings, Matrix     : Custom\r\nFormat settings, GOP        : Variable\r\nFormat settings, picture st : Frame\r\nDuration                    : 24mn 57s\r\nBit rate mode               : Variable\r\nBit rate                    : 5 428 Kbps\r\nMaximum bit rate            : 7 500 Kbps\r\nWidth                       : 720 pixels\r\nHeight                      : 480 pixels\r\nDisplay aspect ratio        : 4:3\r\nFrame rate                  : 29.970 (30000/1001) fps\r\nStandard                    : NTSC\r\nColor space                 : YUV\r\nChroma subsampling          : 4:2:0\r\nBit depth                   : 8 bits\r\nScan type                   : Interlaced\r\nScan order                  : Top Field First\r\nCompression mode            : Lossy\r\nBits/(Pixel*Frame)          : 0.524\r\nTime code of first frame    : 00:59:59;00\r\nTime code source            : Group of pictures header\r\nGOP, Open/Closed            : Closed\r\nStream size                 : 969 MiB (95%)\r\n\r\nAudio\r\nID                          : 189 (0xBD)-128 (0x80)\r\nFormat                      : AC-3\r\nFormat/Info                 : Audio Coding 3\r\nMode extension              : CM (complete main)\r\nFormat settings, Endianness : Big\r\nMuxing mode                 : DVD-Video\r\nDuration                    : 24mn 57s\r\nBit rate mode               : Constant\r\nBit rate                    : 192 Kbps\r\nChannel(s)                  : 2 channels\r\nChannel positions           : Front: L R\r\nSampling rate               : 48.0 KHz\r\nFrame rate                  : 31.250 fps (1536 spf)\r\nCompression mode            : Lossy\r\nStream size                 : 34.3 MiB (3%)\r\n\r\n[b]Plot[/b]\r\n\r\nA documentary series chronicling the real-life high-sea adventures of the Alaskan crab fishermen. This is the most deadly profession in the world.\r\n\r\n[color=red][b]For Newer Users[/b][/color]\r\nSimply Drag downloaded folder to your Media Player. This is a NTSC DVD\r\nThis is ripped so you would have best quality, menu, bonus/special feature, language options etc\r\nNote: DVDs may not have have all* featues \r\n\r\n[b]Screenshots[/b]\r\n\r\n[IMG]http://lookpic.com/O/i2/671/4uj5HSjd.jpeg[/IMG][IMG]http://lookpic.com/O/i2/238/3QUi3pap.jpeg[/IMG]\r\n[IMG]http://lookpic.com/O/i2/534/5gI7ytBT.jpeg[/IMG]\r\n[IMG]http://lookpic.com/O/i2/874/IfNY9O7v.jpeg[/IMG]\r\n[IMG]http://lookpic.com/O/i2/198/vAK8nMis.jpeg[/IMG]\r\n\r\n[IMG]https://i.imgur.com/fLhfPWl.jpg[/img]","torrent":{"xt":"urn:btih:7779066c7ccf556d4c6dc9c8e07269f78417a7eb","amp;dn":"Deadliest+Catch+-++Season+1+-+5+Disc+Set+-+DVD-R+%5BRLG%5D","amp;tr":["udp%3A%2F%2Ftracker.leechers-paradise.org%3A6969","udp%3A%2F%2Fzer0day.ch%3A1337","udp%3A%2F%2Fopen.demonii.com%3A1337","udp%3A%2F%2Ftracker.coppersurfer.tk%3A6969","udp%3A%2F%2Fexodus.desync.com%3A6969"],"infoHash":"7779066c7ccf556d4c6dc9c8e07269f78417a7eb","infoHashBuffer":{"type":"Buffer","data":[119,121,6,108,124,207,85,109,76,109,201,200,224,114,105,247,132,23,167,235]},"announce":[],"urlList":[]}}